<svg xmlns="http://www.w3.org/2000/svg" viewBox="0 0 64 64" role="img" aria-label="DriftHam favicon">
  <defs>
    <radialGradient id="ham" cx="32%" cy="24%" r="78%">
      <stop offset="0" stop-color="#eb8d99"/>
      <stop offset="0.48" stop-color="#c44f80"/>
      <stop offset="1" stop-color="#381318"/>
    </radialGradient>
    <linearGradient id="sheen" x1="12" y1="10" x2="52" y2="54">
      <stop offset="0" stop-color="#2fe6d0" stop-opacity="0"/>
      <stop offset="0.35" stop-color="#2fe6d0" stop-opacity="0.72"/>
      <stop offset="0.55" stop-color="#c6f23a" stop-opacity="0.58"/>
      <stop offset="0.78" stop-color="#9b5de5" stop-opacity="0.5"/>
      <stop offset="1" stop-color="#9b5de5" stop-opacity="0"/>
    </linearGradient>
    <filter id="glow" x="-30%" y="-30%" width="160%" height="160%">
      <feGaussianBlur stdDeviation="1.4" result="blur"/>
      <feMerge>
        <feMergeNode in="blur"/>
        <feMergeNode in="SourceGraphic"/>
      </feMerge>
    </filter>
  </defs>

  <rect width="64" height="64" rx="14" fill="#15101f"/>
  <path d="M13 30C13 15 25 7 39 10c12 3 19 14 17 28-2 13-12 22-26 20C17 56 10 44 13 30Z" fill="url(#ham)"/>
  <path d="M13 30C13 15 25 7 39 10c12 3 19 14 17 28-2 13-12 22-26 20C17 56 10 44 13 30Z" fill="none" stroke="#f5ecdd" stroke-opacity="0.18" stroke-width="2"/>
  <path d="M16 24c8-8 24-10 35 2-8-3-16-1-22 4-5 4-10 3-13-6Z" fill="#fff4ea" opacity="0.18"/>
  <path d="M9 44c19-3 29-19 44-24l5 8C43 33 31 48 12 52Z" fill="url(#sheen)" opacity="0.82"/>

  <rect x="19" y="22" width="27" height="14" rx="4" fill="#0e1f1a" stroke="#2a0f24" stroke-width="2"/>
  <path d="M23 29h10m4 0h5" stroke="#62f1c8" stroke-width="2.5" stroke-linecap="round" filter="url(#glow)"/>
  <circle cx="42" cy="44" r="8" fill="#efa13c" stroke="#2a0f24" stroke-width="2"/>
  <circle cx="42" cy="44" r="3" fill="#ffcaa0"/>
  <path d="M24 44h9" stroke="#f5ecdd" stroke-opacity="0.75" stroke-width="3" stroke-linecap="round"/>
</svg>
